<svg width="20" height="21" viewBox="0 0 20 21" fill="none" xmlns="http://www.w3.org/2000/svg">
<g id="delete">
<mask id="mask0_2_50" style="mask-type:alpha" maskUnits="userSpaceOnUse" x="0" y="0" width="20" height="21">
<rect id="Bounding box" y="0.5" width="20" height="20" fill="#D9D9D9"/>
</mask>
<g mask="url(#mask0_2_50)">
<path id="delete_2" d="M5.83325 18C5.37492 18 4.98256 17.8368 4.65617 17.5104C4.32978 17.184 4.16659 16.7917 4.16659 16.3333V5.5H3.33325V3.83333H7.49992V3H12.4999V3.83333H16.6666V5.5H15.8333V16.3333C15.8333 16.7917 15.6701 17.184 15.3437 17.5104C15.0173 17.8368 14.6249 18 14.1666 18H5.83325ZM14.1666 5.5H5.83325V16.3333H14.1666V5.5ZM7.49992 14.6667H9.16658V7.16667H7.49992V14.6667ZM10.8333 14.6667H12.4999V7.16667H10.8333V14.6667Z" fill="white"/>
</g>
</g>
</svg>
